<?xml version="1.0" encoding="UTF-8"?>
<!DOCTYPE svg  PUBLIC '-//W3C//DTD SVG 20010904//EN'  'http://www.w3.org/TR/2001/REC-SVG-20010904/DTD/svg10.dtd'>
<svg width="1290pt" height="1206pt" version="1.0" viewBox="0 0 1290.000000 1206.000000" xmlns="http://www.w3.org/2000/svg">
<metadata>Created by potrace 1.15, written by Peter Selinger 2001-2017</metadata>
<g transform="translate(0 1206) scale(.1 -.1)">
<path d="m975 11785c-27-8-59-19-71-25-95-51-113-468-31-736 58-193 168-298 277-265 74 22 121 113 162 308 18 87 22 142 22 283 1 201-7 234-80 336-69 97-94 114-167 113-34 0-84-7-112-14zm209-98c55-36 106-206 106-350 0-75-23-242-45-330-32-126-86-207-137-207-33 0-93 69-117 135-37 98-51 194-51 357-1 221 28 331 102 393 27 23 39 26 75 22 23-2 54-12 67-20z"/>
<path d="m1056 11225c-39-39-44-154-10-234 17-41 29-51 65-51 48 0 80 59 81 150 1 55-22 128-45 142-21 13-75 9-91-7z"/>
<path d="m1480 11098c-104-56-140-163-147-440-10-359 31-507 164-585 42-24 47-25 98-14 65 15 94 41 133 118 119 235 154 616 73 788-49 104-102 141-214 151-53 5-69 2-107-18zm229-128c28-14 46-33 62-67 22-44 24-60 24-193-1-125-4-159-28-246-38-144-83-255-123-308-31-40-40-46-73-46-46 0-83 35-106 100-59 168-18 641 63 734 42 47 119 58 181 26z"/>
<path d="m1552 10533c-7-3-21-22-32-42-38-75-16-228 36-248 56-21 104 49 112 164 4 62 2 75-17 102-17 24-30 31-54 30-18 0-38-3-45-6z"/>
<path d="m534 10816c-104-46-143-132-151-341-13-308 69-585 200-682 45-33 119-32 164 3 106 81 175 397 144 663-28 236-128 371-276 370-27 0-64-6-81-13zm202-127c50-24 75-61 99-143 14-48 16-87 12-210-7-244-71-459-152-512-23-15-27-14-67 8-60 33-77 68-114 233-4 17-9 109-11 206-4 142-2 192 12 252 20 92 57 151 105 171s67 19 116-5z"/>
<path d="m621 10236c-71-75-30-286 56-286 39 0 75 70 77 149 1 79-17 127-55 146-39 20-52 19-78-9z"/>
<path d="m1102 10191c-52-9-122-57-141-96-27-56-40-169-40-356-1-321 43-469 167-560 53-39 108-46 163-22 35 16 51 33 80 82l36 61 5-102c4-73 12-120 28-162 31-81 58-106 113-106 75 0 112 57 138 214 21 122-10 256-71 311-29 27-96 25-144-3-41-24-40-29-25 88 14 110 14 305-1 378-12 60-67 170-103 210-51 55-121 77-205 63zm133-122c52-14 100-61 122-118 15-37 18-76 17-201 0-139-3-167-31-276-35-137-85-249-125-278-26-18-27-18-60 1-18 10-43 34-56 53-75 111-104 435-57 638 26 109 63 165 125 185 22 8 22 8 65-4zm349-698c29-32 38-96 26-174-6-39-13-74-16-78-3-5-17 0-33 12-32 23-53 18-72-18-13-25-14-23-20 43-9 95 4 181 32 210 27 29 60 31 83 5z"/>
<path d="m1121 9604c-47-60-23-246 34-260 68-17 99 27 103 144 3 77 1 90-18 115-30 38-90 38-119 1z"/>
<path d="m707 9400c-45-36-60-96-55-217 4-97 8-116 40-183 106-230 252-144 253 150 0 112-10 150-53 209-44 59-135 80-185 41zm149-78c27-18 38-60 37-144-1-48-4-96-8-107-6-18-7-18-30 5-29 29-59 31-78 4-8-11-17-17-20-13-4 3-7 51-7 105 0 125 15 158 70 158 14 0 30-4 36-8z"/>
<path d="m1164 8945c-55-55-77-182-55-311 31-173 141-256 226-171 51 51 67 121 63 270-5 182-41 237-156 237-43 0-58-5-78-25zm140-56c27-13 56-72 56-115 0-37-30-164-39-164-4 0-13 11-19 25-15 32-36 32-67 1-14-14-26-22-29-18-12 22-15 110-6 163 12 67 32 105 58 112 9 3 18 5 19 6 1 0 13-4 27-10z"/>
<path d="m6065 8773c-11-3-54-20-95-38-116-52-359-114-585-150-80-13-139-15-290-9-222 8-225 7-224-74 0-26-7-135-16-242-10-107-19-211-20-230-2-19-10-123-20-230-23-273-24-282-35-508-10-198-14-633-12-1392 1-281-2-376-11-382-21-14-65-9-71 8-3 9-11 118-16 243-6 124-12 235-15 247s-14 142-26 290c-11 148-22 287-24 309-33 347-55 557-70 675-34 259-58 431-69 493-2 14-9 61-16 104-36 259-57 349-100 434-29 57-27 55-50 34-14-12-20-31-20-58 0-22-4-56-9-76s-17-74-26-121c-20-100-51-169-101-228-102-120-254-137-372-43-61 50-139 54-163 9-21-39-29-89-39-236-6-88-17-168-29-207-42-135-126-269-233-371-145-138-518-394-706-485-68-33-149-77-180-98-64-43-135-81-152-81-7 0-48 16-93 36-78 34-86 36-178 32-87-3-102-6-175-42-90-45-160-110-214-202-31-52-35-67-39-143-2-57 3-109 14-158 17-71 17-188 1-263-3-14-11-50-17-80-15-73-35-103-118-177-79-71-100-113-82-165 17-48 14-62-25-119-35-52-36-56-32-134 3-75 7-88 60-193 31-61 60-129 64-149 59-338 90-429 272-806 178-366 289-502 490-599 59-28 77-32 152-32 57 0 117 8 180 24 140 36 266 33 382-7 112-40 243-125 299-195 158-198 261-425 288-633 6-44 11-136 11-205-1-162 3-178 47-217 38-35 42-50 28-135-11-72-28-58 470-393 412-276 751-443 1245-610 260-88 270-91 342-105 75-15 103-2 205 93 103 96 147 119 240 125 94 6 126-7 285-119 137-97 180-119 228-119 73 0 173 87 231 201 50 99 51 182 4 429-35 186-37 202-32 355 7 250 29 392 84 557 28 81 63 136 81 124 23-14 112-159 112-182 0-13-13-50-30-80-16-31-49-113-72-183l-42-126-1-170c0-194 13-254 88-400 61-118 192-248 307-303 108-52 150-61 280-62 127 0 195 16 310 72 67 33 101 58 165 122 150 152 236 343 336 748 22 90 62 233 90 318 31 96 72 259 107 430l56 275v275c1 221-3 294-17 375-64 354-163 580-384 876-161 214-232 283-488 474-405 303-646 696-755 1230-31 149-42 484-21 616 41 250 174 506 327 626 161 126 376 168 510 100 138-70 245-190 295-332 27-76 29-236 4-321-25-88-108-244-159-300-53-60-103-84-228-109-77-16-88-21-88-39 0-12 9-27 19-33 36-23 150-180 169-234 29-79 88-285 102-351 21-105 95-176 213-203 73-17 105-11 199 34 96 47 115 42 155-39 52-106 200-688 247-970 3-19 8-46 11-60 14-64 48-313 70-510 3-25 10-133 15-240 6-107 16-260 23-340 27-331 2-1390-38-1570-26-117-29-270-5-270 16 0 75 77 119 157 25 43 88 148 141 233s116 191 140 235c50 91 119 170 157 180 19 4 46-4 100-31 57-28 81-35 105-30 51 10 110 64 168 154 222 343 670 846 1032 1157 91 79 169 148 172 154 8 13 113 84 167 112 39 21 58 24 164 24 161 0 193-11 266-88 141-149 266-375 362-657 85-250 119-524 82-665-20-77-13-99 27-91 17 3 36 6 43 6 15 0 111 158 154 253 16 36 34 91 40 121s24 79 40 108c17 29 37 87 46 128 9 44 24 83 36 96 17 18 19 29 13 56-12 48-11 53 11 53 29 0 37 59 39 270 1 221-11 279-114 545-55 140-79 226-104 365-14 83-29 163-32 179-46 251-57 401-50 706 5 266 8 289 51 540 15 92 51 214 87 299 22 52 42 110 45 130s14 48 24 62c61 87 70 164 29 231-15 25-20 51-20 104 0 89-17 133-81 202-27 30-64 75-81 101-81 119-192 241-219 241-20 0-19-28 2-106 18-68 21-93 15-179-13-183-70-399-164-623-54-128-175-345-254-452-42-58-89-123-105-145-34-48-68-55-146-29-63 20-236 106-372 184-55 31-158 87-230 125-238 125-305 175-537 401-229 222-326 331-379 426-53 94-92 133-146 148-72 20-169 65-223 105-89 65-175 210-235 397-19 60-44 127-56 149l-20 41-24-22c-25-23-49-94-85-245-28-120-83-302-191-640-112-349-128-400-174-555-20-69-48-152-62-185-77-183-275-355-409-355-48 0-59 4-93 35-49 44-74 104-118 274-20 80-52 176-78 232-49 104-51 109-34 109 7 0 53 19 103 43 79 38 159 95 251 180 69 64 118 55 196-34 50-58 91-81 110-62 9 9 18 40 98 373 75 308 138 449 328 734 62 93 113 177 113 186 0 24-47 85-116 151-111 105-359 322-499 436-77 62-167 135-200 163-99 83-236 147-412 192-74 19-114 23-258 23-147 0-183-3-265-24-368-93-647-347-825-749-121-276-163-509-151-837 8-229 25-343 87-583 117-452 356-963 670-1430 145-217 193-275 409-497 242-247 320-347 399-510 221-452 274-1016 135-1435-19-58-51-130-71-160-43-65-245-290-306-342-45-37-139-98-151-98-9 0-3 37 24 155 31 135 43 307 31 433-18 189-68 323-186 503-53 82-73 103-107 119-78 35-83 14-38-165 57-228 37-441-59-619-26-50-52-91-58-93-25-9-82 61-136 165-31 60-63 114-70 120-9 8-24 8-49 2-35-10-35-11-42-78-4-37-20-106-37-152-17-47-44-123-60-170-71-203-85-523-34-800 32-170 35-196 35-272 0-139-60-265-134-284-38-9-61 16-80 90-41 157-24 425 49 776 5 22 28 179 41 270 7 51 34 295 50 450 34 333 64 896 64 1186 0 191-18 542-35 669-3 22-7 60-10 85-8 64-32 242-55 405-11 77-26 190-35 251-8 62-17 125-20 140-3 16-9 65-15 109-5 44-14 105-20 135s-20 105-30 165c-21 121-48 269-54 300-3 11-25 124-50 250-25 127-50 250-56 275-8 38-32 183-45 280-21 163-39 271-56 350-11 52-26 136-34 186-8 49-22 107-30 128-16 38-16 38-63 32-156-20-170-19-246 8-41 14-83 26-94 26-26 0-51-60-96-232-20-76-52-199-72-274-19-74-51-206-70-292-127-583-134-624-159-922-8-96-19-229-25-295-17-185-24-926-11-1210 13-302 36-656 51-785 6-52 17-156 25-230 18-167 38-323 59-460 9-58 19-121 21-140s11-98 19-175c9-77 18-156 20-175 3-19 12-93 21-165 20-164 49-327 85-480 16-67 34-161 41-210 20-151-4-325-44-325-16 0-62 84-95 170-70 188-87 235-119 334-38 122-76 271-99 386-8 41-16 86-19 100-17 82-47 300-70 500-20 178-44 502-69 960-15 269-39 681-41 720-32 439-32 1091-1 1455 29 329 110 725 241 1169 62 211 220 663 341 974 25 64 54 140 65 167 104 274 216 534 284 660 53 97 67 161 40 182-11 7-21 12-24 12-3-1-15-3-26-6zm-2265-1134c30-42 53-87 133-264 57-126 69-164 71-227 1-41-3-53-23-69-22-18-24-18-53-1-105 60-253 402-232 538 4 32 12 43 32 51 40 16 40 16 72-28zm5966-995c13-9 52-53 85-98 79-106 404-420 546-527 161-122 352-234 653-381 146-71 285-139 310-152 40-19 46-26 50-61 10-81 55-54 170 100 211 284 381 602 477 894 30 91 59 170 64 176 5 5 9-6 9-30 0-33 7-46 42-82l41-42-34-38c-19-21-45-55-58-76-20-32-22-43-12-63 17-38 45-29 90 30 92 119 132 110 78-16-37-88-113-314-121-364-4-25-26-193-26-201 0-2-16-21-36-42-51-57-198-111-304-111-69 0-104-17-108-52-3-25 0-26 55-32 57-7 206 6 287 24 51 11 63 1 37-32-32-40-130-78-235-90-59-7-101-17-116-28l-23-17 23-23c22-22 28-22 131-18 86 4 109 3 109-7 0-22-46-52-123-81-86-32-91-36-82-63 5-16 15-21 41-21 31 0 58 8 184 55 30 12 35 11 38-2 6-22-21-46-87-78-53-25-59-30-50-47 13-23 43-19 119 18 27 13 54 24 60 24 17 0 11-56-7-72-28-24-110-46-212-57-52-6-98-14-103-19-13-13 26-43 69-53 21-5 68-9 106-9 61 0 67-2 67-21 0-15 11-25 40-36 31-12 40-21 40-40 0-12-2-23-4-23s-26 4-54 10c-131 25-262 10-270-31-6-34 25-49 106-49 78 0 211-28 237-50 39-32 2-44-78-25-72 17-127 19-127 5 0-18 44-39 118-55 75-17 102-34 102-64 0-17-5-17-72 6-40 13-99 27-131 30l-59 6 4-29c3-26 8-30 58-42 126-28 223-70 234-99 9-23-24-27-73-8-67 25-180 55-212 55-15 0-31-5-35-11-12-20 30-46 152-93 141-54 210-95 225-133 19-51 6-52-76-6-44 25-107 56-139 69-68 27-136 32-136 10 0-19 31-39 175-116 91-49 136-81 188-131 37-37 67-72 67-78 0-13-204 88-369 183-63 36-118 63-123 60-24-15-1-43 75-93 45-29 135-88 199-130 126-82 288-223 315-274 33-62 43-170 27-302-13-112-45-225-65-225-4 0-36 32-71 71-60 67-112 109-137 109-27 0-10-60 32-111 143-176 152-195 125-254-18-39-29-31-65 49-23 50-45 65-68 46-22-18-15-72 20-155 27-67 31-115 11-160l-13-30-12 40c-6 22-21 88-31 147-21 113-47 185-183 501-97 224-154 327-226 408-120 135-279 185-457 143-108-25-160-59-390-254-423-359-545-481-732-730-126-167-330-387-369-396-43-11-68 18-123 148-52 124-119 314-140 398-96 382-132 734-115 1124 8 207 12 216 90 216h45l2-170c1-93 3-182 4-197 13-150 37-352 49-413 8-41 21-118 30-170 8-52 26-156 40-230 13-74 27-166 30-205 9-107 26-186 42-192 26-10 73 20 122 76 31 36 78 73 130 104 45 26 117 68 161 94s90 57 101 69c20 21 20 21 0 90-65 228-81 289-99 379-75 359-94 856-47 1210 27 202 100 536 145 659 53 147 40 175-171 391-118 121-164 175-187 221-47 92-99 126-135 87-30-34-126-335-142-448-3-22-15-76-25-120-38-158-49-400-31-655 5-69 6-145 3-170l-7-45-49-1c-68-2-96 26-96 93 0 26-5 77-10 113-25 164-35 516-18 655 20 161 61 328 115 465 35 88 165 344 202 400 17 25 31 49 31 54 0 9 40 56 47 56 2 0 15-7 29-16zm-6210-262c51-76 49-103-9-141-23-14-67-52-99-83-83-82-93-86-130-51-39 37-92 145-84 171 4 13 29 29 64 44 31 13 88 47 126 76 39 29 75 51 80 49 6-2 29-31 52-65zm-1058-45c60-64 242-536 242-630 0-27-2-28-37-25-49 4-66-25-57-97l7-50-31 33c-75 80-106-5-61-167 20-69 21-90 14-236-4-88-9-196-10-240-2-44-13-115-26-158-25-88-19-118 27-139 23-11 29-10 44 9 9 12 22 50 29 85s19 90 28 123c8 33 17 75 20 93 8 51 31 39 38-20 7-57 1-247-10-315-6-37-4-43 19-59 22-14 32-15 52-6 13 7 26 17 28 24 3 7 12 35 22 63 16 44 19 46 24 25 12-50-11-384-36-535-32-187-59-267-153-452-140-276-222-373-315-373-181 0-420 266-602 672-90 200-184 491-198 613-16 136-28 170-79 231-59 70-81 149-56 197 24 45 38 44 126-9 83-50 103-44 103 28 0 22-10 39-37 64-21 19-57 52-80 73-71 64-56 111 42 131 78 16 81 24 94 245 4 78 12 148 17 158 9 15 17 12 78-28 79-52 115-64 208-72 135-11 251 31 337 122 90 95 131 212 112 321-7 36-16 77-22 92s-17 54-24 87l-14 59 45 43c51 49 62 52 92 20zm1677-424c13-32 26-312 32-653 5-334 2-414-34-785-18-186-17-174-37-330-23-176-23-176-61-397-48-274-63-363-81-498-30-233-75-436-130-593-29-84-154-347-165-347-13 0-47 63-54 100-7 36-65 224-92 295-8 22-32 70-54 107-21 37-64 120-95 185-46 95-59 136-71 213-21 136-28 468-13 625 30 329 53 512 75 615 3 14 10 50 16 80 72 376 248 812 436 1080 73 102 280 320 305 320 9 0 19-8 23-17zm522-1151c37-23 58-182 68-502 3-102 10-261 15-355 23-404 25-512 25-1100 0-643-11-881-51-1120-25-145-81-310-127-370-15-20-15-20-37 0-65 59-148 319-166 522-7 73-6 349 1 423 2 25 8 166 14 313 5 147 12 276 15 285s8 40 11 67c2 28 12 104 21 170 40 304 53 441 78 810 22 328 38 514 47 554 6 25 14 99 18 163 6 100 10 120 27 133 22 17 25 17 41 7z"/>
<path d="m2435 5347c-36-31-44-81-38-221 5-112 3-127-22-201-14-44-29-103-32-131-5-44-2-55 16-73 26-26 53-27 75-2 42 47 93 360 84 516-8 120-34 155-83 112z"/>
<path d="m2255 5200c-13-14-19-40-21-88-2-38-14-108-28-156-38-131-32-172 26-164 17 2 28 16 45 60 33 82 53 163 60 244 8 98 0 124-36 124-15 0-36-9-46-20z"/>
<path d="m874 8683c-91-19-113-242-40-407 28-62 97-126 136-126 40 0 77 34 93 88 49 153 15 363-68 424-24 18-86 29-121 21zm128-100c33-37 47-156 29-238-7-29-7-30-19-8-17 31-49 39-73 17-10-9-19-24-20-33 0-9-7 2-16 24-22 59-23 193 0 228 21 32 75 38 99 10z"/>
<path d="m1200 8217c-33-16-74-99-66-132 4-14 17-32 31-41 22-14 30-14 66-3 50 17 79 51 86 106 4 33 1 45-16 62-24 24-63 27-101 8z"/>
<path d="m949 7981c-46-46-52-92-18-135 41-53 127-17 158 67 26 69 4 107-61 107-34 0-47-7-79-39z"/>
<path d="m5994 7960c-49-11-103-49-131-91-23-35-25-45-22-127 4-78 8-95 34-138 55-88 151-127 270-109 60 8 137 79 154 140 27 100 3 204-64 270-57 58-146 78-241 55z"/>
<path d="m1169 7801c-32-32-39-46-39-77 1-47 19-74 50-74 22 0 22 1 6 25-28 42-1 86 32 53 7-7 12-25 12-40v-28l40 20c30 15 40 27 45 53 19 100-72 142-146 68z"/>
<path d="m981 7604c-52-43-64-141-21-164 27-15 83-12 106 5 49 34 71 137 36 168-28 26-85 21-121-9z"/>
<path d="m1189 7457c-44-30-68-65-76-110-8-51 16-77 71-77 70 0 116 51 116 128 0 68-55 97-111 59z"/>
<path d="m991 7254c-48-34-68-136-33-167 10-10 35-17 56-17 30 0 45 7 72 34 30 30 34 40 34 88 0 30-5 59-12 66-17 17-90 15-117-4z"/>
<path d="m1191 7092c-47-23-72-61-78-114-5-39-2-47 18-62 29-20 52-20 95 0 36 17 74 81 74 126 0 50-58 77-109 50z"/>
<path d="m1174 6681c-56-34-83-131-46-163 27-23 48-28 85-17 28 7 40 19 56 52 21 44 27 93 13 113-9 14-47 34-64 34-7 0-27-9-44-19z"/>
<path d="m1142 6285c-39-44-50-96-28-130 13-20 25-25 60-25 38 0 48 5 74 35 39 44 50 96 28 130-13 20-25 25-60 25-38 0-48-5-74-35z"/>
<path d="m1125 5957c-61-61-56-158 9-165 67-8 126 50 126 125 0 78-75 100-135 40z"/>
<path d="m1129 5579c-16-17-34-48-40-69-10-33-9-43 5-65 13-20 24-25 59-25 49 0 81 19 102 60 20 39 24 71 12 95-14 28-27 35-70 35-31 0-45-7-68-31z"/>
<path d="m1148 5264c-32-17-68-81-68-119 0-14 11-37 26-52 21-21 32-24 61-20 62 10 103 65 103 136 0 64-58 90-122 55z"/>
</g>
</svg>
