<?xml version="1.0" encoding="UTF-8"?>
<!DOCTYPE svg  PUBLIC '-//W3C//DTD SVG 20010904//EN'  'http://www.w3.org/TR/2001/REC-SVG-20010904/DTD/svg10.dtd'>
<svg width="200pt" height="200pt" version="1.0" viewBox="0 0 200.000000 200.000000" xmlns="http://www.w3.org/2000/svg">
<metadata>Created by potrace 1.15, written by Peter Selinger 2001-2017</metadata>
<g transform="translate(0 200) scale(.1 -.1)">
<path d="m990 1412v-58l-118-47c-75-30-133-47-160-47-33 0-42-4-42-17 0-10-14-26-31-36l-32-18 22-23c24-25 25-56 4-64-8-2-13 6-13 22 0 24-3 26-44 26-38 0-45-3-50-25l-6-25-206-2-206-3-2-276-1-277 530-6c292-4 694-3 894 1l364 8-1 275v275l-211 3-211 2v25c0 23-4 25-45 25-39 0-45-3-51-25-3-14-10-22-15-19-14 8-11 40 6 54 23 19 18 38-15 55-16 9-30 22-30 30 0 11-11 15-40 15-59 0-270 87-270 112 0 17 14 22 53 18 15-1 18 4 15 27-2 23-8 28-35 31-18 2-33 7-33 13 0 5-4 9-10 9s-10-26-10-58zm161-167l144-54h-295-295l135 54c74 30 142 54 151 54 9 1 81-24 160-54zm169-110c0-13-42-15-320-15s-320 2-320 15 42 15 320 15 320-2 320-15zm-720-35c0-15 7-20 29-20 26 0 41-14 41-41 0-5-110-9-264-9h-264l-4 25-5 25h208c202 0 209 1 209 20 0 15 7 20 25 20s25-5 25-20zm850 0c0-19 7-20 189-20 104 0 196-3 205-6s16-15 16-25c0-18-12-19-265-19-154 0-265 4-265 9 0 27 15 41 41 41 22 0 29 5 29 20s7 20 25 20 25-5 25-20zm-594-486c-16-16-106-20-106-4 0 6 20 10 45 10h46l-3 83-3 82-47 3-47 3-4-88c-1-48-4 9-4 127-2 204-1 213 14 183s20-33 65-33h48l2 43c2 23 4-56 5-176 3-180 1-221-11-233zm330 366c39 0 47 4 64 33l20 32v-208c0-235-1-237-70-237-70 0-70 1-68 247 1 120 3 199 5 176l4-43h45zm-518-52c-1-56-2-62-5-25l-4 47h-40c-38 0-39-1-39-37 0-21-3-48-6-60-6-22-3-23 45-23h51l-2-107-2-108-3 88-4 87h-44-45v-85-85h40c22 0 40-4 40-10s-92-10-255-10h-255v200 200h265 265l-2-72zm1192-128v-200h-255c-163 0-255 4-255 10s18 10 40 10h40v85 85h-45-44l-4-87c-1-49-4-1-5 105l-2 192h265 265v-200zm-790 6c0-96-3-181-6-190-15-39-24-9-24 79 0 84-2 95-20 105-14 8-26 8-40 0-18-10-20-21-20-106s-2-94-15-80c-12 12-15 47-15 190v176h70 70v-174zm800-224c0-4-394-8-875-8s-875 4-875 8 394 8 875 8 875-4 875-8z"/>
<path d="m1150 706v-86h50 51l-3 83-3 82-47 3-48 3v-85z"/>
<path d="m170 706v-86h50 51l-3 83-3 82-47 3-48 3v-85z"/>
<path d="m300 705v-85h50 50v85 85h-50-50v-85z"/>
<path d="m437 783c-4-3-7-42-7-85v-78h50 50v85 85h-43c-24 0-47-3-50-7z"/>
<path d="m1470 705v-85h45 45v85 85h-45-45v-85z"/>
<path d="m1600 706v-86h50 51l-3 83-3 82-47 3-48 3v-85z"/>
<path d="m1737 783c-4-3-7-42-7-85v-78h50 50v85 85h-43c-24 0-47-3-50-7z"/>
</g>
</svg>
